<svg xmlns="http://www.w3.org/2000/svg" width="512" height="512" viewBox="0 0 64 64">
  <style>
    .st0{fill:#3498db}.st1{fill:#2c3e50}.st2{fill:#f5f7fa}.st3{fill:#bdc3c7}.st4{fill:#ecf0f1}
  </style>
  <g id="Layer_1">
    <path class="st4" d="M49.5 52.1H14.6c-1.1 0-2-.9-2-2V15.9c0-1.1.9-2 2-2h34.9c1.1 0 2 .9 2 2v34.2c0 1.1-.9 2-2 2z"/>
    <path class="st3" d="M47.5 44.1H16.6c-.5 0-1-.4-1-1V21.9c0-.5.4-1 1-1h30.9c.5 0 1 .4 1 1v21.2c0 .6-.4 1-1 1z"/>
    <path class="st2" d="M45.1 38.6H19c-.3 0-.5-.2-.5-.5v-12c0-.3.2-.5.5-.5h26.1c.3 0 .5.2.5.5v12c0 .3-.2.5-.5.5z"/>
    <path class="st1" d="M32 28.6c-3.9 0-7 3.1-7 7s3.1 7 7 7 7-3.1 7-7-3.1-7-7-7zm0 12c-2.8 0-5-2.2-5-5s2.2-5 5-5 5 2.2 5 5-2.2 5-5 5z"/>
    <path class="st0" d="M35.6 33.6L31 38.2l-2.6-2.6c-.4-.4-1-.4-1.4 0s-.4 1 0 1.4l3.3 3.3c.2.2.4.3.7.3.3 0 .5-.1.7-.3l5.3-5.3c.4-.4.4-1 0-1.4s-1-.4-1.4 0z"/>
    <circle class="st0" cx="26" cy="19.5" r="1.5"/>
    <circle class="st0" cx="32" cy="19.5" r="1.5"/>
    <circle class="st0" cx="38" cy="19.5" r="1.5"/>
    <path class="st0" d="M21 48.6h22v1H21z"/>
    <g>
      <path class="st1" d="M20 24.6h4v2h-4z"/>
      <path class="st1" d="M40 24.6h4v2h-4z"/>
    </g>
    <path class="st3" d="M45.1 38.6v2c0 .3-.2.5-.5.5H19.5c-.3 0-.5-.2-.5-.5v-2h26.1z"/>
    <path class="st1" d="M32 46.6c-.6 0-1-.4-1-1v-3c0-.6.4-1 1-1s1 .4 1 1v3c0 .6-.4 1-1 1z"/>
  </g>
  <g id="Layer_2">
    <path class="st1" d="M32 58.1c-14.4 0-26-11.7-26-26s11.7-26 26-26 26 11.7 26 26-11.7 26-26 26zm0-50c-13.2 0-24 10.8-24 24s10.8 24 24 24 24-10.8 24-24-10.8-24-24-24z"/>
    <path class="st0" d="M32 54.1c-12.1 0-22-9.9-22-22s9.9-22 22-22 22 9.9 22 22-9.9 22-22 22zm0-42c-11 0-20 9-20 20s9 20 20 20 20-9 20-20-9-20-20-20z"/>
  </g>
</svg> 